<svg viewBox="0 0 129 60" fill="none" xmlns="http://www.w3.org/2000/svg">
  <path fill-rule="evenodd" clip-rule="evenodd" d="M76.75 33.09h15.29c2.1 0 5.9-.28 8.2-2.18a8.83 8.83 0 0 0 2.55-3c.6-1.16.92-2.43.94-3.73a9.67 9.67 0 0 0-1.01-4.47 10.2 10.2 0 0 0-2.99-3.6 8.5 8.5 0 0 0 2.4-2.96c.55-1.15.83-2.4.8-3.67 0-1.33-.6-8.44-12.19-8.44h-14V33.1Zm7-26.55h8.19c2.4 0 4.3.86 4.3 3.6 0 2.57-1.7 3.6-4.7 3.6h-7.9v-7.2h.1Zm0 12.8h9.49c1.3 0 3.9.2 3.9 3.8 0 4.36-3.2 4.45-5.2 4.45h-8.2v-8.25ZM42.77 33.09h15.3c2.09 0 5.89-.28 8.19-2.18a8.83 8.83 0 0 0 2.55-3c.6-1.16.93-2.43.94-3.73a9.67 9.67 0 0 0-1-4.47 10.2 10.2 0 0 0-3-3.6 8.5 8.5 0 0 0 2.4-2.96c.55-1.15.83-2.4.8-3.67 0-1.33-.6-8.44-12.19-8.44H42.77V33.1Zm7-26.55h8.2c2.39 0 4.29.86 4.29 3.6 0 2.57-1.7 3.6-4.7 3.6h-7.9v-7.2h.1Zm0 12.8h9.5c1.29 0 3.89.2 3.89 3.8 0 4.36-3.2 4.45-5.2 4.45h-8.2v-8.25Z" fill="#fff"/>
  <path d="M26.58 10.9a9.58 9.58 0 0 1 2.1 6.07c0 1.36-.27 2.7-.82 3.96a10.17 10.17 0 0 1-2.38 3.34 11.28 11.28 0 0 1-15.39 0 10.15 10.15 0 0 1-3.2-7.3 10.25 10.25 0 0 1 3.28-7.3 11.38 11.38 0 0 1 7.72-3.03h.1l5.6-5.79a19.76 19.76 0 0 0-5.7-.85c-3.53 0-6.99.99-9.93 2.85a17.2 17.2 0 0 0-6.59 7.6 16.16 16.16 0 0 0-1.03 9.78 16.7 16.7 0 0 0 4.86 8.69 18.1 18.1 0 0 0 9.11 4.63c3.45.65 7.04.32 10.29-.96a17.62 17.62 0 0 0 7.99-6.23 16.27 16.27 0 0 0-1.31-20.39l-4.7 4.93Z" fill="#fff"/>
  <path fill-rule="evenodd" clip-rule="evenodd" d="M14.79 12.04 25.59.94h8.29l-10.7 11.1H14.8Z" fill="#fff"/>
  <path d="M42.77 59.73V44.66h4.6v15.07h-4.6ZM54.46 59.73V44.66h6.8l4.5 11.66V44.66h4v15.07h-6.8l-4.5-11.66v11.66h-4ZM76.75 59.73V44.66h11.5v2.94h-6.9v3.32h6.6v2.84h-6.6v5.97h-4.6ZM93.44 59.73V44.66h7.8c2.7 0 5.69.95 5.69 4.07 0 2.19-1.6 3.32-3.7 3.8.69.07 1.33.34 1.83.79.5.44.85 1.03.97 1.67l1.6 4.74h-4.8l-1.2-3.79c-.4-1.42-.7-1.9-2.3-1.9h-1.4v5.7h-4.5Zm4.4-8.53h1.5c1.4 0 2.9-.28 2.9-1.9 0-1.51-1.4-1.8-2.8-1.8h-1.6v3.7ZM110.83 59.73l5.7-15.07h6.19l5.8 15.07h-4.8l-1.2-3.5h-5.9l-1.2 3.5h-4.6Zm6.6-6.44h4.19l-2.1-6.07-2.1 6.07Z" fill="#fff"/>
</svg>